<svg width="19" height="19" viewBox="0 0 19 19" fill="none" xmlns="http://www.w3.org/2000/svg">
<path d="M9.5 19C4.26179 19 0 14.7382 0 9.5C0 4.26179 4.26179 0 9.5 0C14.7382 0 19 4.26179 19 9.5C19 14.7382 14.7382 19 9.5 19ZM9.5 1.18751C4.91641 1.18751 1.18751 4.91641 1.18751 9.5C1.18751 14.0836 4.91641 17.8125 9.5 17.8125C14.0836 17.8125 17.8125 14.0836 17.8125 9.5C17.8125 4.91641 14.0836 1.18751 9.5 1.18751Z" fill="black"/>
<path d="M9.49999 14.25C6.88089 14.25 4.74997 12.1192 4.74997 9.50002C4.74997 6.88087 6.88084 4.75 9.49999 4.75C10.7878 4.75 11.9927 5.25679 12.8938 6.17697L12.0449 7.00727C11.3694 6.31725 10.466 5.93746 9.49999 5.93746C7.5355 5.93746 5.93748 7.53549 5.93748 9.49998C5.93748 11.4645 7.5355 13.0625 9.49999 13.0625C10.4654 13.0625 11.3688 12.6827 12.0449 11.9927L12.8926 12.8242C11.9921 13.7438 10.7872 14.25 9.49999 14.25Z" fill="black"/>
</svg>
