<svg width="259" height="272" viewBox="0 0 259 272" fill="none" xmlns="http://www.w3.org/2000/svg">
<path d="M69.662 218.212L80.1241 228.919" stroke="white" stroke-width="1.1533" stroke-miterlimit="10" stroke-linecap="round" stroke-linejoin="round"/>
<path d="M33.4275 182.013L52.8206 201.642" stroke="white" stroke-width="1.1533" stroke-miterlimit="10" stroke-linecap="round" stroke-linejoin="round"/>
<path d="M66.3448 184.562L139.324 257.47" stroke="white" stroke-width="1.1533" stroke-miterlimit="10" stroke-linecap="round" stroke-linejoin="round"/>
<path d="M29.0896 147.344L43.8896 162.129" stroke="white" stroke-width="1.1533" stroke-miterlimit="10" stroke-linecap="round" stroke-linejoin="round"/>
<path d="M118.655 206.485L182.959 270.725" stroke="#7BD3EF" stroke-width="1.1533" stroke-miterlimit="10" stroke-linecap="round" stroke-linejoin="round"/>
<path d="M21.9448 109.616L90.331 177.934" stroke="#7BD3EF" stroke-width="1.1533" stroke-miterlimit="10" stroke-linecap="round" stroke-linejoin="round"/>
<path d="M75.531 132.814L189.083 245.998" stroke="white" stroke-width="1.1533" stroke-miterlimit="10" stroke-linecap="round" stroke-linejoin="round"/>
<path d="M28.5792 85.9082L52.5654 109.871" stroke="white" stroke-width="1.1533" stroke-miterlimit="10" stroke-linecap="round" stroke-linejoin="round"/>
<path d="M169.179 195.779L196.483 223.055" stroke="white" stroke-width="1.1533" stroke-miterlimit="10" stroke-linecap="round" stroke-linejoin="round"/>
<path d="M1.53101 28.2962L140.6 167.228" stroke="white" stroke-width="1.1533" stroke-miterlimit="10" stroke-linecap="round" stroke-linejoin="round"/>
<path d="M113.041 109.106L248.793 244.978" stroke="#7BD3EF" stroke-width="1.1533" stroke-miterlimit="10" stroke-linecap="round" stroke-linejoin="round"/>
<path d="M53.0758 49.1996L84.462 80.8098" stroke="#7BD3EF" stroke-width="1.1533" stroke-miterlimit="10" stroke-linecap="round" stroke-linejoin="round"/>
<path d="M139.324 105.027L227.103 192.72" stroke="white" stroke-width="1.1533" stroke-miterlimit="10" stroke-linecap="round" stroke-linejoin="round"/>
<path d="M49.7585 15.5502L114.572 80.2999" stroke="white" stroke-width="1.1533" stroke-miterlimit="10" stroke-linecap="round" stroke-linejoin="round"/>
<path d="M211.793 146.834L257.469 192.72" stroke="#7BD3EF" stroke-width="1.1533" stroke-miterlimit="10" stroke-linecap="round" stroke-linejoin="round"/>
<path d="M89.3104 24.7273L178.366 113.44" stroke="#7BD3EF" stroke-width="1.1533" stroke-miterlimit="10" stroke-linecap="round" stroke-linejoin="round"/>
<path d="M167.393 71.8875L229.145 133.833" stroke="white" stroke-width="1.1533" stroke-miterlimit="10" stroke-linecap="round" stroke-linejoin="round"/>
<path d="M96.7103 1.52954L143.152 47.6701" stroke="white" stroke-width="1.1533" stroke-miterlimit="10" stroke-linecap="round" stroke-linejoin="round"/>
<path d="M222.255 96.3599L246.497 120.577" stroke="#7BD3EF" stroke-width="1.1533" stroke-miterlimit="10" stroke-linecap="round" stroke-linejoin="round"/>
<path d="M133.71 7.90256L194.952 69.0834" stroke="#7BD3EF" stroke-width="1.1533" stroke-miterlimit="10" stroke-linecap="round" stroke-linejoin="round"/>
<path d="M209.752 53.5333L224.552 68.3186" stroke="white" stroke-width="1.1533" stroke-miterlimit="10" stroke-linecap="round" stroke-linejoin="round"/>
<path d="M183.979 27.5314L194.186 37.7282" stroke="white" stroke-width="1.1533" stroke-miterlimit="10" stroke-linecap="round" stroke-linejoin="round"/>
</svg>
