<svg width="96" height="104" viewBox="0 0 96 104" fill="none" xmlns="http://www.w3.org/2000/svg">
<g clip-path="url(#clip0)">
<path d="M48.1 102.3L5.60001 59.8C4.90001 59.1 4.90001 58 5.60001 57.4L48.1 15C48.8 14.3 49.9 14.3 50.5 15L92.9 57.4C93.6 58.1 93.6 59.2 92.9 59.8L50.5 102.2C49.8 102.9 48.7 102.9 48.1 102.3Z" stroke="#7BD3EF" stroke-width="1.7707" stroke-miterlimit="10"/>
<path d="M50.2 2C50.7523 2 51.2 1.55228 51.2 1C51.2 0.447715 50.7523 0 50.2 0C49.6477 0 49.2 0.447715 49.2 1C49.2 1.55228 49.6477 2 50.2 2Z" fill="white"/>
<path d="M61.9 12.7C61.5 13.1 60.9 13.1 60.5 12.7C60.1 12.3 60.1 11.7 60.5 11.3C60.9 10.9 61.5 10.9 61.9 11.3C62.3 11.7 62.3 12.3 61.9 12.7Z" fill="white"/>
<path d="M72.9 23.7C72.5 24.1 71.9 24.1 71.5 23.7C71.1 23.3 71.1 22.7 71.5 22.3C71.9 21.9 72.5 21.9 72.9 22.3C73.3 22.7 73.3 23.3 72.9 23.7Z" fill="white"/>
<path d="M83.9 34.7C83.5 35.1 82.9 35.1 82.5 34.7C82.1 34.3 82.1 33.7 82.5 33.3C82.9 32.9 83.5 32.9 83.9 33.3C84.3 33.7 84.3 34.3 83.9 34.7Z" fill="white"/>
<path d="M94.2 46C94.7523 46 95.2 45.5523 95.2 45C95.2 44.4477 94.7523 44 94.2 44C93.6477 44 93.2 44.4477 93.2 45C93.2 45.5523 93.6477 46 94.2 46Z" fill="white"/>
<path d="M41 11.5C40.6 11.9 40 11.9 39.6 11.5C39.2 11.1 39.2 10.5 39.6 10.1C40 9.7 40.6 9.7 41 10.1C41.4 10.5 41.4 11.1 41 11.5Z" fill="white"/>
<path d="M51.3 22.8C51.8523 22.8 52.3 22.3523 52.3 21.8C52.3 21.2477 51.8523 20.8 51.3 20.8C50.7477 20.8 50.3 21.2477 50.3 21.8C50.3 22.3523 50.7477 22.8 51.3 22.8Z" fill="white"/>
<path d="M62.3 33.8C62.8523 33.8 63.3 33.3523 63.3 32.8C63.3 32.2477 62.8523 31.8 62.3 31.8C61.7477 31.8 61.3 32.2477 61.3 32.8C61.3 33.3523 61.7477 33.8 62.3 33.8Z" fill="white"/>
<path d="M73.3 44.8C73.8523 44.8 74.3 44.3523 74.3 43.8C74.3 43.2477 73.8523 42.8 73.3 42.8C72.7477 42.8 72.3 43.2477 72.3 43.8C72.3 44.3523 72.7477 44.8 73.3 44.8Z" fill="white"/>
<path d="M84.3 55.8C84.8523 55.8 85.3 55.3523 85.3 54.8C85.3 54.2477 84.8523 53.8 84.3 53.8C83.7477 53.8 83.3 54.2477 83.3 54.8C83.3 55.3523 83.7477 55.8 84.3 55.8Z" fill="white"/>
<path d="M31.2 21.4C30.8 21.8 30.2 21.8 29.8 21.4C29.4 21 29.4 20.4 29.8 20C30.2 19.6 30.8 19.6 31.2 20C31.6 20.3 31.6 21 31.2 21.4Z" fill="white"/>
<path d="M41.5 32.7C42.0523 32.7 42.5 32.2523 42.5 31.7C42.5 31.1477 42.0523 30.7 41.5 30.7C40.9477 30.7 40.5 31.1477 40.5 31.7C40.5 32.2523 40.9477 32.7 41.5 32.7Z" fill="white"/>
<path d="M52.5 43.7C53.0523 43.7 53.5 43.2523 53.5 42.7C53.5 42.1477 53.0523 41.7 52.5 41.7C51.9477 41.7 51.5 42.1477 51.5 42.7C51.5 43.2523 51.9477 43.7 52.5 43.7Z" fill="white"/>
<path d="M63.5 54.7C64.0523 54.7 64.5 54.2523 64.5 53.7C64.5 53.1477 64.0523 52.7 63.5 52.7C62.9477 52.7 62.5 53.1477 62.5 53.7C62.5 54.2523 62.9477 54.7 63.5 54.7Z" fill="white"/>
<path d="M75.2 65.4C74.8 65.8 74.2 65.8 73.8 65.4C73.4 65 73.4 64.4 73.8 64C74.2 63.6 74.8 63.6 75.2 64C75.6 64.4 75.6 65 75.2 65.4Z" fill="white"/>
<path d="M21.4 31.2C21 31.6 20.4 31.6 20 31.2C19.6 30.8 19.6 30.2 20 29.8C20.4 29.4 21 29.4 21.4 29.8C21.8 30.2 21.8 30.8 21.4 31.2Z" fill="white"/>
<path d="M32.4 42.2C32 42.6 31.4 42.6 31 42.2C30.6 41.8 30.6 41.2 31 40.8C31.4 40.4 32 40.4 32.4 40.8C32.8 41.2 32.8 41.8 32.4 42.2Z" fill="white"/>
<path d="M42.7 53.5C43.2523 53.5 43.7 53.0523 43.7 52.5C43.7 51.9477 43.2523 51.5 42.7 51.5C42.1477 51.5 41.7 51.9477 41.7 52.5C41.7 53.0523 42.1477 53.5 42.7 53.5Z" fill="white"/>
<path d="M54.4 64.2C54 64.6 53.4 64.6 53 64.2C52.6 63.8 52.6 63.2 53 62.8C53.4 62.4 54 62.4 54.4 62.8C54.8 63.2 54.8 63.8 54.4 64.2Z" fill="white"/>
<path d="M65.4 75.2C65 75.6 64.4 75.6 64 75.2C63.6 74.8 63.6 74.2 64 73.8C64.4 73.4 65 73.4 65.4 73.8C65.8 74.2 65.8 74.8 65.4 75.2Z" fill="white"/>
<path d="M11.5 41C11.1 41.4 10.5 41.4 10.1 41C9.69999 40.6 9.69999 40 10.1 39.6C10.5 39.2 11.1 39.2 11.5 39.6C11.9 40 11.9 40.6 11.5 41Z" fill="white"/>
<path d="M21.8 52.3C22.3523 52.3 22.8 51.8523 22.8 51.3C22.8 50.7477 22.3523 50.3 21.8 50.3C21.2477 50.3 20.8 50.7477 20.8 51.3C20.8 51.8523 21.2477 52.3 21.8 52.3Z" fill="white"/>
<path d="M32.8 63.3C33.3523 63.3 33.8 62.8523 33.8 62.3C33.8 61.7477 33.3523 61.3 32.8 61.3C32.2477 61.3 31.8 61.7477 31.8 62.3C31.8 62.8523 32.2477 63.3 32.8 63.3Z" fill="white"/>
<path d="M43.8 74.3C44.3523 74.3 44.8 73.8523 44.8 73.3C44.8 72.7477 44.3523 72.3 43.8 72.3C43.2477 72.3 42.8 72.7477 42.8 73.3C42.8 73.8523 43.2477 74.3 43.8 74.3Z" fill="white"/>
<path d="M55.5 85.1C55.1 85.5 54.5 85.5 54.1 85.1C53.7 84.7 53.7 84.1 54.1 83.7C54.5 83.3 55.1 83.3 55.5 83.7C55.9 84 55.9 84.7 55.5 85.1Z" fill="white"/>
<path d="M1.7 50.9C1.3 51.3 0.7 51.3 0.3 50.9C-0.1 50.5 -0.1 49.9 0.3 49.5C0.7 49.1 1.3 49.1 1.7 49.5C2.1 49.8 2.1 50.5 1.7 50.9Z" fill="white"/>
<path d="M12 62.2C12.5523 62.2 13 61.7523 13 61.2C13 60.6477 12.5523 60.2 12 60.2C11.4477 60.2 11 60.6477 11 61.2C11 61.7523 11.4477 62.2 12 62.2Z" fill="white"/>
<path d="M23 73.2C23.5523 73.2 24 72.7523 24 72.2C24 71.6477 23.5523 71.2 23 71.2C22.4477 71.2 22 71.6477 22 72.2C22 72.7523 22.4477 73.2 23 73.2Z" fill="white"/>
<path d="M34 84.2C34.5523 84.2 35 83.7523 35 83.2C35 82.6477 34.5523 82.2 34 82.2C33.4477 82.2 33 82.6477 33 83.2C33 83.7523 33.4477 84.2 34 84.2Z" fill="white"/>
<path d="M45.7 94.9C45.3 95.3 44.7 95.3 44.3 94.9C43.9 94.5 43.9 93.9 44.3 93.5C44.7 93.1 45.3 93.1 45.7 93.5C46.1 93.9 46.1 94.5 45.7 94.9Z" fill="white"/>
</g>
<defs>
<clipPath id="clip0">
<rect width="95.2" height="103.7" fill="white"/>
</clipPath>
</defs>
</svg>
