<svg width="215" height="217" viewBox="0 0 215 217" fill="none" xmlns="http://www.w3.org/2000/svg">
<g clip-path="url(#clip0)">
<path d="M111.738 210.822C111.353 206.961 114.05 203.486 117.903 203.1C121.756 202.714 125.224 205.416 125.609 209.278C125.994 213.139 123.297 216.614 119.444 217C119.059 217 118.673 217 118.673 217C115.206 217 112.123 214.297 111.738 210.822ZM67.4279 210.822C63.9602 209.278 62.0336 205.416 63.5748 201.941C64.7308 198.466 68.9691 196.536 72.4369 197.694C75.9046 199.238 77.8311 203.1 76.6752 206.575C75.5193 209.278 72.8222 211.208 70.125 211.208C69.3544 211.208 68.1985 210.822 67.4279 210.822ZM158.36 196.536C156.048 193.447 156.819 189.199 160.286 186.883C163.369 184.566 167.607 185.338 169.919 188.813C172.231 191.902 171.46 196.15 167.992 198.466C166.837 199.239 165.295 199.625 164.139 199.625C161.828 199.625 159.901 198.466 158.36 196.536ZM24.6591 181.091C21.9619 178.388 22.3473 173.755 25.0444 171.052C27.7415 168.349 32.3652 168.735 35.0623 171.824C37.7594 174.527 37.3741 179.16 34.2917 181.863C33.1358 183.021 31.2093 183.794 29.668 183.794C27.7415 183.408 25.815 182.635 24.6591 181.091ZM193.037 162.171C189.569 160.24 188.414 155.993 189.955 152.904C191.881 149.429 196.12 148.271 199.202 149.815C202.67 151.746 203.826 155.993 202.285 159.082C201.129 161.399 198.431 162.943 196.12 162.943C195.349 162.943 194.193 162.557 193.037 162.171ZM0.384885 134.756C-0.385724 130.895 1.9261 127.42 5.39385 126.262C9.24689 125.489 12.7146 127.42 13.8705 131.281C14.6412 135.142 12.3293 138.618 8.86159 139.776C8.47628 139.776 7.70567 140.162 7.32037 140.162C3.85263 140.162 1.15549 137.845 0.384885 134.756ZM201.129 108.5C201.129 108.114 201.129 108.114 201.129 108.5C201.129 104.253 204.211 101.164 208.064 101.164C211.917 101.164 215 104.253 215 108.114C215 108.114 215 108.114 215 108.5C215 108.5 215 108.5 215 108.886C215 112.747 211.917 115.836 208.064 115.836C204.211 115.45 201.129 112.361 201.129 108.5ZM5.39385 91.1246C1.5408 90.3524 -0.771029 86.4912 0.384885 82.63C1.15549 78.7687 5.00854 76.452 8.86159 77.6104C12.7146 78.3826 15.0265 82.2438 13.8705 86.105C13.0999 89.194 10.4028 91.5107 6.93506 91.5107C6.54976 91.1246 5.77915 91.1246 5.39385 91.1246ZM189.955 64.0961C188.028 60.6211 189.569 56.3737 193.037 54.8292C196.505 52.8986 200.743 54.4431 202.285 57.5321C204.211 61.0072 202.67 65.2545 199.587 66.799C198.431 67.1851 197.276 67.5712 196.505 67.5712C193.808 67.5712 191.496 66.4129 189.955 64.0961ZM25.0444 45.9485C22.3473 43.2456 21.9619 38.9983 24.2738 36.2954C26.9709 33.2065 31.2093 33.2065 34.2917 35.5232C36.9888 38.226 37.3741 42.4734 34.677 45.5623C33.1358 47.1068 31.2093 47.8791 29.2827 47.8791C27.7415 47.8791 26.2003 47.1068 25.0444 45.9485ZM159.901 29.7314C156.819 27.4147 156.048 23.1673 157.975 20.0784C160.286 16.9894 164.525 16.2171 167.607 18.1477C170.69 20.4645 171.46 24.7118 169.534 27.8008C168.378 29.7314 166.066 30.8897 163.754 30.8897C162.598 31.2759 161.057 30.8897 159.901 29.7314ZM63.1895 15.4449C61.6483 11.9698 63.5748 7.72248 67.0426 6.56412C70.5103 5.01964 74.7487 6.95024 75.9046 10.4253C77.4458 13.9004 75.5193 18.1478 72.0516 19.3061C71.2809 19.6922 70.5103 19.6922 69.7397 19.6922C67.0426 20.0784 64.3455 18.1478 63.1895 15.4449ZM117.132 13.9004C113.279 13.5143 110.582 10.0392 110.967 6.178C111.353 2.31679 114.82 -0.386058 118.673 6.3464e-05C122.526 0.386184 125.224 3.86127 124.838 7.72248C124.453 11.1976 121.371 13.9004 117.903 13.9004C117.903 13.9004 117.518 13.9004 117.132 13.9004Z" fill="#7BD3EF"/>
<path d="M110.582 192.288C110.197 189.199 112.509 186.496 115.591 186.11C118.674 185.724 121.371 188.041 121.756 191.13C122.142 194.219 119.83 196.922 116.747 197.308C116.362 197.308 116.362 197.308 115.977 197.308C113.28 197.308 110.968 194.991 110.582 192.288ZM74.3638 192.288C71.2814 191.13 70.1255 188.041 70.8961 184.952C72.052 181.863 75.1344 180.705 78.2169 181.477C81.2993 182.635 82.4552 185.724 81.6846 188.813C80.914 191.13 78.6022 192.674 76.2903 192.674C75.905 192.288 75.1344 192.288 74.3638 192.288ZM148.728 180.705C146.801 178.002 147.572 174.527 150.269 172.596C152.966 170.665 156.434 171.438 158.36 174.141C160.287 176.843 159.516 180.318 156.819 182.249C155.663 183.021 154.507 183.407 153.737 183.407C151.81 183.021 149.884 182.249 148.728 180.705ZM39.3011 167.963C37.3746 165.646 37.3746 162.171 39.6864 159.854C41.9982 157.923 45.466 157.923 47.7778 160.24C49.7043 162.557 49.7043 166.032 47.3925 168.349C46.2366 169.121 45.0807 169.893 43.5395 169.893C41.9982 169.893 40.457 169.121 39.3011 167.963ZM177.24 152.518C174.543 150.973 173.387 147.498 174.928 144.795C176.47 142.092 179.937 140.934 182.634 142.479C185.332 144.023 186.487 147.498 184.946 150.201C183.79 152.132 181.864 153.29 179.937 153.29C179.167 152.904 178.396 152.904 177.24 152.518ZM19.6506 130.123C18.88 127.034 20.8065 123.945 23.8889 123.173C26.9714 122.4 30.0538 124.331 30.8244 127.42C31.595 130.509 29.6685 133.598 26.5861 134.37C26.2007 134.37 25.8154 134.37 25.0448 134.37C22.3477 134.37 20.0359 132.826 19.6506 130.123ZM183.79 108.5C183.79 108.5 183.79 108.114 183.79 108.5C183.79 105.025 186.487 102.322 189.57 102.322C192.652 102.322 195.35 105.025 195.35 108.114C195.35 111.203 192.652 113.906 189.57 113.906C186.487 114.292 183.79 111.589 183.79 108.5ZM23.5036 94.2135C20.4212 93.4412 18.4947 90.3523 19.2653 87.2633C20.0359 84.1743 23.1183 82.2437 26.2007 83.016C29.2832 83.7882 31.2097 86.8772 30.4391 89.9661C29.6685 92.669 27.3567 94.2135 25.0448 94.2135C24.6595 94.2135 23.8889 94.2135 23.5036 94.2135ZM174.928 72.2046C173.387 69.5017 174.543 66.0266 177.24 64.4822C179.937 62.9377 183.405 64.096 184.946 66.7989C186.487 69.5017 185.332 72.9768 182.634 74.5213C181.864 74.9074 180.708 75.2935 179.937 75.2935C178.011 74.9074 175.699 74.1352 174.928 72.2046ZM39.6864 57.532C37.3746 55.6014 36.9893 51.7402 39.3011 49.4234C41.2276 47.1067 45.0807 46.7206 47.3925 49.0373C49.7043 50.9679 50.0896 54.8291 47.7778 57.1459C46.6219 58.3042 45.0807 59.0765 43.5395 59.0765C41.9982 59.0765 40.8423 58.3042 39.6864 57.532ZM149.884 44.4039C147.186 42.4733 146.801 38.9982 148.342 36.2953C150.269 33.5925 153.737 33.2063 156.434 34.7508C159.131 36.6814 159.516 40.1565 157.975 42.8594C156.819 44.4039 154.893 45.1761 153.351 45.1761C152.195 45.1761 151.039 44.79 149.884 44.4039ZM70.8961 32.4341C69.7402 29.3451 71.2814 26.2562 73.9785 25.0978C77.061 23.9394 80.1434 25.4839 81.2993 28.5729C82.4552 31.6619 80.914 34.7508 78.2169 35.9092C77.4463 36.2953 76.6757 36.2953 76.2903 36.2953C73.9785 35.9092 71.6667 34.7508 70.8961 32.4341ZM115.206 31.2757C112.124 30.8896 109.812 28.1868 110.197 25.0978C110.582 22.0088 113.28 19.6921 116.362 20.0782C119.444 20.4644 121.756 23.1672 121.371 26.2562C120.986 29.3451 118.674 31.2757 115.591 31.2757C115.591 31.2757 115.591 31.2757 115.206 31.2757Z" fill="#7BD3EF"/>
<path d="M109.812 176.457C109.426 173.754 111.353 171.437 113.665 171.437C116.362 171.051 118.674 172.982 118.674 175.299C119.059 177.615 117.133 180.318 114.821 180.318H114.435C112.124 180.318 110.197 178.774 109.812 176.457ZM80.5286 176.071C78.2168 175.299 77.0609 172.596 77.8315 170.279C78.6021 167.962 81.2992 166.804 83.611 167.576C85.9229 168.349 87.0788 171.051 86.3082 173.368C85.5376 175.299 83.9963 176.457 82.0698 176.457C81.6845 176.457 80.9139 176.457 80.5286 176.071ZM140.636 166.804C139.095 164.873 139.866 161.784 141.792 160.24C143.719 158.695 146.801 159.468 148.342 161.398C149.883 163.329 149.113 166.418 147.186 167.962C146.416 168.349 145.645 168.735 144.489 168.735C142.948 168.735 141.792 168.349 140.636 166.804ZM52.0161 156.765C50.4748 154.834 50.4748 152.131 52.4014 150.201C54.3279 148.656 57.4103 148.656 58.9515 150.587C60.4928 152.518 60.4928 155.607 58.5662 157.151C57.7956 157.923 56.6397 158.309 55.4838 158.309C54.3279 158.309 53.172 157.537 52.0161 156.765ZM163.754 144.023C161.443 142.865 160.672 140.162 161.828 137.845C162.984 135.528 165.681 134.756 167.993 135.914C170.305 137.073 171.075 139.776 169.919 142.092C169.149 143.637 167.607 144.409 165.681 144.409C165.296 144.795 164.525 144.409 163.754 144.023ZM35.8333 125.875C35.0626 123.558 36.6039 120.856 39.301 120.083C41.6128 119.311 44.31 120.856 44.6953 123.558C45.4659 125.875 43.9247 128.578 41.2275 129.35C40.8422 129.35 40.4569 129.35 40.0716 129.35C38.5304 129.35 36.6039 128.192 35.8333 125.875ZM169.149 108.5C169.149 108.5 169.149 108.114 169.149 108.5C169.149 105.797 171.075 103.48 173.772 103.48C176.469 103.48 178.396 105.411 178.396 108.114C178.396 110.816 176.469 112.747 173.772 112.747C171.075 113.133 169.149 111.203 169.149 108.5ZM39.301 96.9161C36.9892 96.1439 35.448 93.8272 35.8333 91.5104C36.6039 89.1937 38.9157 87.6492 41.2275 88.0353C43.5393 88.8076 45.0806 91.1243 44.6953 93.8272C44.31 95.7578 42.3834 97.3023 40.0716 97.3023C40.0716 96.9161 39.6863 96.9161 39.301 96.9161ZM161.828 78.7684C160.672 76.4517 161.443 73.7489 163.754 72.5905C166.066 71.4321 168.763 72.2044 169.919 74.5211C171.075 76.8378 170.305 79.5407 167.993 80.699C167.222 81.0852 166.452 81.0852 165.681 81.0852C164.14 81.4713 162.598 80.699 161.828 78.7684ZM52.4014 67.1848C50.4748 65.6403 50.4748 62.5514 52.0161 60.6208C53.5573 58.6902 56.6397 58.6902 58.5662 60.2346C60.4928 61.7791 60.4928 64.8681 58.9515 66.7987C58.1809 67.9571 56.6397 68.3432 55.4838 68.3432C54.3279 68.3432 53.172 67.9571 52.4014 67.1848ZM141.792 56.3734C139.866 54.8289 139.095 52.1261 140.636 49.8094C142.177 47.8788 144.874 47.1065 147.186 48.651C149.113 50.1955 149.883 52.8983 148.342 55.2151C147.572 56.3734 146.03 57.1457 144.489 57.1457C143.333 57.1457 142.563 56.7596 141.792 56.3734ZM77.4462 46.7204C76.6756 44.4037 77.8315 41.7008 80.1433 40.9286C82.4551 40.1563 85.1523 41.3147 85.9229 43.6314C86.6935 45.9482 85.5376 48.651 83.2257 49.4233C82.8404 49.8094 82.0698 49.8094 81.6845 49.8094C80.1433 49.8094 78.2168 48.651 77.4462 46.7204ZM113.665 45.9482C110.968 45.562 109.426 43.2453 109.426 40.9286C109.812 38.2257 112.124 36.6813 114.435 37.0674C117.133 37.4535 118.674 39.7702 118.288 42.087C117.903 44.4037 115.977 46.3343 113.665 46.3343C113.665 45.9482 113.665 45.9482 113.665 45.9482Z" fill="#7BD3EF"/>
</g>
<defs>
<clipPath id="clip0">
<rect width="215" height="217" fill="white"/>
</clipPath>
</defs>
</svg>
