<svg width="50" height="50" viewBox="0 0 50 50" fill="none" xmlns="http://www.w3.org/2000/svg">
<g clip-path="url(#clip0)">
<path d="M49.8736 42.8439C49.6537 41.788 48.6197 41.1102 47.5633 41.33C46.5073 41.5498 45.8294 42.5842 46.0494 43.6401C46.176 44.2484 46.0251 44.8719 45.6357 45.351C45.4101 45.6284 44.9071 46.0938 44.0733 46.0938H5.92738C5.09359 46.0938 4.59056 45.6283 4.36498 45.351C3.97543 44.872 3.82465 44.2484 3.95131 43.6401C5.97826 33.9043 14.5657 26.7924 24.4826 26.5525C24.6543 26.5592 24.8269 26.5625 25.0003 26.5625C25.1744 26.5625 25.3476 26.5591 25.5201 26.5524C32.5056 26.72 38.9622 30.2582 42.8723 36.0896C43.473 36.9855 44.6862 37.2248 45.5823 36.6241C46.4782 36.0234 46.7175 34.8102 46.1167 33.9143C42.9119 29.1346 38.2583 25.659 32.9523 23.9126C36.1857 21.4879 38.2816 17.6247 38.2816 13.2812C38.2816 5.95801 32.3237 0 25.0003 0C17.677 0 11.7191 5.95801 11.7191 13.2812C11.7191 17.6273 13.8175 21.4926 17.0543 23.9171C14.0887 24.8935 11.306 26.4127 8.87045 28.416C4.40443 32.0896 1.29925 37.2135 0.127086 42.8439C-0.240296 44.6083 0.19984 46.4204 1.33441 47.8155C2.46341 49.2038 4.13754 50 5.92738 50H44.0732C45.8631 50 47.5372 49.2038 48.6661 47.8155C49.8009 46.4204 50.241 44.6083 49.8736 42.8439ZM15.6253 13.2812C15.6253 8.11182 19.8309 3.90625 25.0003 3.90625C30.1698 3.90625 34.3753 8.11182 34.3753 13.2812C34.3753 18.2915 30.4246 22.3964 25.4748 22.6443C25.3169 22.6414 25.1587 22.6399 25.0003 22.6399C24.8427 22.6399 24.6851 22.6415 24.5277 22.6444C19.577 22.3975 15.6253 18.2922 15.6253 13.2812Z" fill="white"/>
</g>
<defs>
<clipPath id="clip0">
<rect width="50" height="50" fill="white"/>
</clipPath>
</defs>
</svg>
